<svg xmlns="http://www.w3.org/2000/svg" viewBox="0 0 500 500"><path fill="#00285D" d="M250 0C112.2 0 0 112.1 0 250c0 137.8 112.2 250 250 250 137.9 0 250-112.2 250-250C500 112.1 387.9 0 250 0"/><path fill="#FFF" d="M474 250c0-123.7-100.3-224-224-224S26 126.3 26 250s100.3 224 224 224 224-100.3 224-224"/><path fill="#6CADDE" d="M392.6 250c0-78.7-63.9-142.6-142.6-142.6-78.7 0-142.6 63.8-142.6 142.6S171.2 392.6 250 392.6c78.7 0 142.6-63.8 142.6-142.6"/><path fill="#00285D" d="M250 403.9c-84.8 0-153.9-69-153.9-153.9 0-84.8 69-153.9 153.9-153.9s153.9 69 153.9 153.9c0 84.8-69.1 153.9-153.9 153.9zm0-299.2c-80.1 0-145.3 65.2-145.3 145.3 0 80.1 65.2 145.3 145.3 145.3 80.1 0 145.3-65.2 145.3-145.3 0-80.1-65.2-145.3-145.3-145.3z"/><path fill="#6CADDE" d="M250 489.8C117.8 489.8 10.2 382.2 10.2 250 10.2 117.8 117.8 10.2 250 10.2c132.2 0 239.8 107.6 239.8 239.8-.1 132.2-107.6 239.8-239.8 239.8m0-474.4C120.7 15.4 15.5 120.7 15.5 250S120.7 484.6 250 484.6 484.6 379.4 484.6 250c0-129.3-105.3-234.6-234.6-234.6"/><path fill="#6CADDE" d="M49.9 244.5l-4.1 1-1.1-4.2 6.7-2h3.5v23.4h-5v-18.2zm10.9 11.9c0-2.9 1.3-4.5 3.8-5.7-1.8-1.1-3-2.6-3-5.1v-.1c0-3.6 3.3-6.4 8.2-6.4 4.9 0 8.2 2.8 8.2 6.4v.1c0 2.5-1.2 4-3 5.1 2.4 1.2 3.7 2.7 3.7 5.5v.1c0 4.3-3.8 6.8-9 6.8s-8.9-2.7-8.9-6.7zm13-.4c0-1.9-1.7-2.9-4-2.9s-4 1.1-4 2.9v.1c0 1.6 1.5 2.9 4 2.9 2.5-.1 4-1.4 4-3zm-.7-9.8c0-1.5-1.2-2.8-3.3-2.8-2.1 0-3.3 1.3-3.3 2.7v.1c0 1.6 1.3 2.9 3.3 2.9 2-.1 3.3-1.3 3.3-2.9zm356.3 7c-1.2 1-2.7 1.6-4.7 1.6-5 0-8.3-2.8-8.3-7.5v-.1c0-4.7 3.6-8.1 8.9-8.1 3.1 0 4.9.8 6.7 2.5 1.7 1.7 2.7 4.2 2.7 8.8v.1c0 7.5-3.5 12.7-10.1 12.7-3.4 0-5.7-1.1-7.6-2.8l2.7-3.9c1.7 1.4 3.1 2 5.1 2 3.4 0 4.4-3.3 4.6-5.3zm.1-6.1c0-2.1-1.5-3.6-4.1-3.6-2.5 0-4 1.5-4 3.5v.1c0 2.1 1.5 3.5 4.1 3.5 2.5 0 4-1.5 4-3.5zm21.5 10.6h-11.4l-.8-3.6 12.7-14.8h4.3v14.2h3.1v4.1h-3.1v5H451v-4.9zm0-4.1v-7.2l-6.2 7.2h6.2z"/><path fill="#FFF" d="M250 395.3c-80.1 0-145.3-65.2-145.3-145.3 0-80.1 65.2-145.3 145.3-145.3 80.1 0 145.3 65.2 145.3 145.3 0 80.1-65.2 145.3-145.3 145.3m0-285.2c-77.1 0-139.9 62.8-139.9 139.9 0 77.2 62.8 139.9 139.9 139.9 77.2 0 140-62.8 140-139.9-.1-77.2-62.8-139.9-140-139.9"/><path fill-rule="evenodd" clip-rule="evenodd" fill="#00285D" d="M247.3 124.9c-71.7 0-113.1 9.4-113.1 9.4s-16.5 62.8-7.1 143.4c3.9 33.8 31.4 106.5 122.5 131.3 91.1-24.8 118.5-97.5 122.5-131.3 9.4-80.5-7.1-143.4-7.1-143.4s-41.4-9.4-113.1-9.4h-4.6z"/><path fill-rule="evenodd" clip-rule="evenodd" fill="#96C1E7" d="M359.6 258.9c-.8 24.4-4.6 97.5-110 137.6-104.6-39-110-114.6-110-137.6h220z"/><path fill-rule="evenodd" clip-rule="evenodd" fill="#FFF" d="M356.4 254.9c2.8-60.5-7.4-109.6-7.4-109.6s-39.3-7.5-99.3-7.5-100 8.3-100 8.3-10.9 49.3-7.9 108.8h214.6z"/><path fill="#6CADDF" d="M252.9 394.4L141.7 260c-4.1 27.7 18.4 109.3 111.2 134.4z"/><path fill="#6CADDE" d="M174.8 259.1l102.9 124.1c10.4-5 18-9.8 25.4-15.7l-89.9-108.4h-38.4zm71.5.1l76 91.7c7.5-8.5 13.8-16.1 18.3-24.2l-55.9-67.5h-38.4zm111.4 0l-38-.1 31.9 38.5c5.5-11.9 6.1-31.8 6.1-38.4z"/><path fill="#00285D" d="M294.5 309.5c-.3-.9-1-1.6-1.9-1.9l-6.3-2.2c-.6-.2-1.1-.2-1.7 0-.5-2.2-1.8-4.2-3.6-5.5-.2-.2-.5-.3-.7-.5-.4-.3-.9-.5-1.4-.7l-2.4-.9c-1.9-.6-3.7-1.2-6-2.9-2.2-1.6-3.2-3-4.1-4.4-.2-.3-.5-.7-.7-1-.6-1-1.4-1.8-2.4-2.5-1.6-1.2-3.5-1.8-5.5-1.8-.4 0-.9.1-1.3.2v-.1c.1-.8-.1-1.6-.5-2.2l-3.9-5.3c-.6-.8-1.4-1.2-2.4-1.2-.9 0-1.8.4-2.4 1.1l-4.1 5.3c-.5.7-.7 1.5-.6 2.3-.3 0-.7-.1-1-.1-2 0-3.9.6-5.5 1.7-.2.2-.4.3-.6.5-.4.3-.8.7-1.1 1.1-.6.7-1.1 1.4-1.6 2-1.2 1.6-2.3 3.1-4.6 4.8-2.2 1.6-3.8 2.1-5.5 2.6-.4.1-.8.2-1.1.3-1.1.3-2.2.8-3.1 1.5-1.9 1.4-3.2 3.4-3.6 5.7-.7-.2-1.3-.3-2-.1l-6.3 2.1c-.9.3-1.6 1-1.9 1.9-.3.9-.1 1.8.4 2.6l3.8 5.5c.4.6 1.1 1 1.8 1.2-1 2.1-1.2 4.6-.5 6.8.1.3.2.5.3.8.2.5.4.9.7 1.4.5.8 1 1.4 1.5 2.1 1.2 1.6 2.3 3.1 3.2 5.8.8 2.5.8 4.3.7 5.9v1.2c-.1 1.2.1 2.3.4 3.4.7 2.2 2.3 4 4.2 5.1-.2.4-.4.9-.4 1.4v6.6c0 .9.5 1.8 1.2 2.4.7.5 1.7.7 2.6.4l6.4-1.9c.6-.2 1-.6 1.4-1 1.9 1.8 4.6 2.7 7.2 2.5.5 0 1-.1 1.6-.2.9-.2 1.7-.5 2.5-.7 1.9-.6 3.7-1.2 6.6-1.2 2.7 0 4.3.6 5.9 1.1.4.1.7.3 1.1.4 1.1.4 2.3.7 3.4.7 2.4 0 4.6-.9 6.4-2.6.4.4.8.8 1.3 1l6.3 2c.9.3 1.9.1 2.6-.4.8-.5 1.2-1.4 1.2-2.3l.2-6.6c0-.5-.2-1-.4-1.5 1.9-1.1 3.5-2.9 4.2-5.1.1-.3.2-.5.2-.8l.3-1.5c.1-.9.1-1.7.1-2.6 0-2 0-3.8.9-6.6.8-2.5 1.9-3.9 2.9-5.2.3-.3.5-.6.7-.9.8-.9 1.3-1.9 1.7-3 .8-2.3.5-4.9-.6-7 .6-.2 1.1-.5 1.4-1l3.8-5.4c.7-.7.9-1.7.6-2.6z"/><path fill="#FFC758" d="M246.1 323.7c0-2 1.7-3.7 3.7-3.7 2.1 0 3.7 1.7 3.7 3.7s-1.7 3.7-3.7 3.7-3.7-1.6-3.7-3.7z"/><path fill="#ED3024" d="M249.8 292.2c-.6-2.3-2-4.2-3.9-5.3l3.9-5 3.7 5c-1.8 1.3-3.1 3.1-3.7 5.3m-29.9 21.9c-2-1.3-3.3-3-4-5.1l-5.9 2 3.6 5.2c1.6-1.5 3.9-2.2 6.3-2.1m11.6 34.5c-1.8 1.4-4 2.2-6.2 2.2l.1 6.2 6.1-1.8c-.9-2-.8-4.4 0-6.6m36.6.1c.8 2.2.9 4.4.2 6.5l5.9 1.9.2-6.3c-2.1.1-4.4-.7-6.3-2.1m11.3-34.6c2.4-.1 4.5.5 6.3 1.8l3.6-5-6-2.1c-.4 2.1-1.9 4-3.9 5.3m-37.2 34.7c-2.8 0-5-2.3-5-5 0-.4-.4-.5-.6-.3-1.8 2.2-3.2 4.1-3.3 6.5-.1 3.5 2.8 6.3 6.3 6.3h.7c.3 0 .7 0 1.1-.1 2.5-.6 4.6-1.8 8.8-1.8 3.5 0 5.4.9 7.2 1.5.7.3 1.5.5 2.4.5 3.5 0 6.4-2.8 6.3-6.3 0-2.4-1.5-4.3-3.3-6.5-.2-.2-.5-.1-.5.3 0 2.7-2.3 5-5 5-2.1 0-4.8-1.8-7.4-1.8-2.3-.1-5.6 1.7-7.7 1.7zm-3.3-6.9c0 2.3 1.9 4.2 4.2 4.2.2 0 .5 0 .8-.1.1 0 .2-.1.3-.1h.2c1.4-.4 2.8-1.1 5.3-1.1 2.6 0 3.8.7 5.2 1.1.5.2 1 .3 1.5.3 2.3 0 4.2-1.9 4.2-4.2 0-.6-.1-1.2-.4-1.7l-.3-.6s-7.1-9.6-7.3-9.9c-.3-.4-.8-.3-1.1-.2-.3.1-1.2.3-1.8.3-.6 0-1.3-.1-1.8-.3-.5-.2-.8-.3-1.1.2-.3.4-5.4 7.3-7 9.5-.5.7-.9 1.6-.9 2.6zm32.7-3.2c-.8 2.6-3.7 4.1-6.3 3.2-.4-.1-.6.1-.4.4 1.6 2.4 3 4.3 5.2 5.1 3.3 1.1 6.9-.7 8-4 .1-.2.1-.4.2-.6.1-.3.2-.6.2-1 .2-2.6-.3-4.9 1-8.9 1.1-3.3 2.6-4.8 3.7-6.4.5-.6.9-1.3 1.2-2.1 1.1-3.3-.7-6.9-4.1-7.9-2.3-.7-4.6.1-7.3 1.1-.3.1-.2.4.1.5 2.7.9 4.1 3.7 3.3 6.3-.7 2-3.2 4-4 6.5-.9 2.2-.2 5.9-.8 7.8zm-7.7 1.1c2.2.7 4.6-.5 5.3-2.7.1-.2.2-.5.2-.8v-.5c0-1.5-.2-3 .5-5.4.8-2.5 1.9-3.4 2.7-4.6.3-.4.5-.8.7-1.3.7-2.2-.5-4.5-2.7-5.3-.6-.2-1.2-.2-1.7-.2-.2 0-.5.1-.7.1 0 0-11.4 3.7-11.8 3.8-.5.2-.5.7-.5 1 0 .3-.1 1.2-.2 1.8-.2.5-.5 1.2-.9 1.5-.3.4-.6.7-.2 1.1.3.4 5.3 7.3 7 9.5.6 1 1.3 1.6 2.3 2zm6.9-32c2.3 1.6 2.8 4.7 1.1 7-.2.3 0 .6.3.5 2.8-.7 5.1-1.5 6.5-3.4 2.1-2.8 1.4-6.7-1.4-8.8-.2-.1-.4-.2-.6-.4-.3-.2-.5-.3-.9-.5-2.4-1-4.8-1.2-8.2-3.7-2.8-2-3.8-3.9-5-5.4-.4-.7-1-1.3-1.7-1.8-2.8-2-6.8-1.4-8.8 1.4-1.4 2-1.4 4.4-1.2 7.2 0 .3.3.3.5.1 1.6-2.2 4.8-2.7 7-1.1 1.7 1.2 2.8 4.2 5 5.8 2 1.4 5.7 1.9 7.4 3.1zm-1.4 7.5c1.4-1.9 1-4.5-.9-5.8-.2-.2-.4-.3-.7-.4-.1 0-.2-.1-.3-.1-.1 0-.1 0-.2-.1-1.4-.5-3-.7-5-2.2-2.1-1.5-2.7-2.8-3.6-3.9-.3-.4-.6-.8-1-1.1-1.9-1.4-4.5-.9-5.9.9-.4.5-.6 1-.7 1.6-.1.2-.1.5-.1.7 0 0 0 11.9.1 12.3 0 .6.5.7.8.8.3.1 1.2.4 1.6.8.5.3 1 .9 1.2 1.3.2.4.5.7 1 .5.4-.2 8.6-2.8 11.3-3.6 1-.3 1.8-.9 2.4-1.7zM241 299c2.3-1.6 5.4-1.1 7 1.1.2.3.6.2.6-.1.1-2.8.1-5.2-1.2-7.2-2-2.8-6-3.4-8.8-1.4-.2.1-.4.3-.5.4-.2.2-.5.4-.8.7-1.7 1.9-2.6 4.2-6.1 6.6-2.8 2-4.9 2.4-6.8 3-.8.2-1.5.5-2.2 1-2.8 2-3.5 6-1.4 8.8 1.5 1.9 3.8 2.6 6.5 3.4.3.1.4-.2.2-.5-1.6-2.2-1.1-5.4 1.1-7 1.7-1.2 4.9-1.3 7.1-2.9 2-1.3 3.6-4.7 5.3-5.9zm6.8 3.6c-1.4-1.9-4-2.3-5.9-.9-.2.1-.4.3-.6.5-.1.1-.1.2-.2.3 0 .1-.1.1-.1.1-.9 1.2-1.6 2.6-3.6 4-2.1 1.5-3.5 1.6-4.9 2.2-.5.1-.9.3-1.4.6-1.9 1.4-2.3 4-.9 5.8.4.5.8.9 1.3 1.2l.6.3s11.5 3.7 11.8 3.8c.6.2.8-.3 1-.5.2-.3.8-.9 1.2-1.3.5-.3 1.1-.6 1.6-.8.5-.1.9-.2.8-.8v-11.7c.1-.9-.1-1.9-.7-2.8zm-24.4 21.9c-.9-2.6.6-5.4 3.2-6.3.4-.1.4-.5.1-.6-2.7-1-5-1.8-7.3-1.1-3.4 1-5.2 4.6-4.1 7.9.1.2.1.4.2.6.1.3.2.6.4.9 1.3 2.2 3.2 3.8 4.5 7.8 1.1 3.3.8 5.4.8 7.3-.1.8 0 1.6.3 2.4 1.1 3.3 4.7 5.2 8 4 2.3-.8 3.7-2.7 5.2-5.1.2-.2-.1-.4-.4-.3-2.6.9-5.5-.6-6.3-3.2-.7-2 .2-5.1-.6-7.6-.6-2.2-3.3-4.7-4-6.7zm5.6-5.3c-2.2.7-3.4 3.1-2.7 5.3 0 .2.2.5.3.8.1.1.1.2.2.3 0 0 0 .1.1.1.9 1.2 2 2.3 2.8 4.7.8 2.4.5 3.8.6 5.3 0 .5 0 1 .2 1.5.7 2.2 3.1 3.4 5.3 2.7.6-.2 1.1-.5 1.5-.9.2-.1.4-.3.5-.5 0 0 7-9.6 7.2-10 .3-.5 0-.8-.2-1.1-.2-.3-.7-1-.9-1.6-.2-.5-.3-1.3-.2-1.8.1-.5.1-.9-.5-1-.5-.1-8.6-2.8-11.3-3.6-.9-.4-1.9-.5-2.9-.2z"/><path fill="#FFC758" d="M285 194.6l25.7-8.9s-2.2 10.7-1.6 19c.8 10.7 7 18.9 7 18.9l-31.7 11 .6-40z"/><path fill="#D4A11E" d="M316.1 223.7s-5.6-8.1-6.6-17.5c-.7-7 0-13.1 1.2-20.5-1.1 4.9-5.3 18.7-16.9 31.5-4.7 5.2-6.7 9.7-7.6 12.8l-.5-60.7s-6.1 2.2-6.7 2.3c-.8.2-1 .7-1.1.9 0 .4-.3.6-.7.7-.5.2-4 1.4-6.5 2.2-.4.2-.3.6 0 .6 2.9-.1 7.1-.4 7.5-.5.6-.1.8-.4.9-.8v-.1c.1-.5.5-.8 1-.8.3 0 2.6-.3 4-.4l-.6 65.3h2.9V234l29.7-10.3z"/><path fill="#FFC758" d="M201.9 236.3s-4.8-3.6-6.1-10.2c-1.3-6.8 2.1-10.8 2.1-10.8l31.2-10.7s-1.9 6.2-.1 13.2c2.3 9 7.1 14.9 7.1 14.9s-11.4-2.1-22.5-.8c-10.6 1.5-11.7 4.4-11.7 4.4zm-35.9-7.8s3.9-10.6 15.3-22.2c8.6-8.8 14.3-11.4 14.3-11.4s-5 7.2-7.1 19c-1.3 7.3.1 16.6.1 16.6s-5.8-1.2-12.6-1.9c-5.6-.6-10-.1-10-.1z"/><path fill="#D4A11E" d="M195.6 194.9s-4.9 7.2-7 19c-1.3 7.3.1 16.6.1 16.6s-1.5-.3-4.8-1.1c-14-3.1 11.7-34.5 11.7-34.5zm18.3 8.6l-.3-28.1h-.1c-.7.2-6.1 2.1-6.7 2.3-.7.2-1.1.7-1.1.9 0 .4-.3.6-.8.7-.5.2-4 1.4-6.5 2.2-.4.2-.3.6.1.6 2.9-.2 7-.5 7.5-.5.6-.1.9-.4.9-.8v-.1c.1-.5.5-.8 1-.8.3 0 2.5-.3 3.9-.4l-.2 24h2.3zm36.4-25.3h2.2v-27s-6.1 2.1-6.7 2.3c-.8.2-1.1.7-1.1.9 0 .4-.3.6-.7.7-.5.1-4 1.4-6.5 2.2-.5.2-.3.6 0 .6 2.9-.1 7.1-.5 7.5-.5.6-.1.8-.4.9-.8v-.1c.1-.5.5-.8 1-.8.3 0 2.4-.3 3.8-.4l-.4 22.9z"/><path fill="#FFC758" d="M244.8 157.5h.1c.6-.1.8-.4.9-.8v-.1c.1-.3.3-.6.6-.7l-.8-2.4c-.7.2-1 .7-1 .9 0 .3-.2.5-.6.6l.8 2.5zm-38.9 24.2h.1c.6-.1.8-.4.9-.8v-.1c.1-.3.3-.6.6-.7l-.8-2.4c-.7.2-1 .7-1 .9 0 .3-.2.5-.6.6l.8 2.5zm72.1-6.1h.1c.6-.1.8-.4.9-.8v-.1c.1-.3.3-.6.6-.7l-.8-2.4c-.7.2-1 .7-1 .9 0 .3-.2.5-.6.7l.8 2.4z"/><path fill="#D4A11E" d="M236.1 232.8s-5-7.3-7-15.1c-1.7-6.7 0-13.1 0-13.1s-3.4 11.5-11.3 17.7c-5.6 4.4-19 8.4-15.9 14 .4-.8 1.8-2.2 7.4-3.5.7-.2 1.4-.3 2.1-.4v9.3h2.9V232c10.2-1 21.8.8 21.8.8z"/><path fill="#FFC758" d="M198.7 213.5s-3.6-2.2-3.2-9.3c.4-7.3 4.1-10.5 4.2-10.7l24.3-8.3s-1.8 3.6-.5 9.1c1.5 6.7 5.8 10.4 5.8 10.4s-12.2.2-23.2 3.9c-5.5 1.8-7.4 4.9-7.4 4.9z"/><path fill="#D4A11E" d="M213.1 198.1c7-5.8 10.8-13.1 10.8-13.1s-1 4.7-.2 8.8c1.3 7.1 5.5 10.8 5.5 10.8s-9.8.2-20.6 3.1c-7 2-9.3 4.8-9.9 5.7-2.3-5.2 7.2-9.4 14.4-15.3z"/><path fill="#FFC758" d="M240.8 238.2s-6.7-5.1-8.3-14.4c-1.3-7.4 3.7-12.8 3.7-12.8l38-13.1s-2.1 8.4-.2 16.4c2.2 9.1 10.5 20.3 10.5 20.3s-15.8-4.5-29.4-2.8c-13.1 1.7-14.3 6.4-14.3 6.4zM233 178c-.3-5.8 3.7-10.3 4-10.6l27.3-9.5s-1.8 4.3-1.3 8c.8 7 4.8 10.7 4.8 10.7s-10.7-.6-23.3 3.8c-7 2.4-7.7 5.8-7.7 5.8s-3.4-1.1-3.8-8.2z"/><path fill="#D4A11E" d="M254.6 170.6c4.9-4.3 9.6-12.7 9.6-12.7s-1.8 4.3-1.3 8c.8 7 4.8 10.7 4.8 10.7s-11.5-.1-22.7 3.8c-4.8 1.7-7.8 4.3-8.2 5.8-1.7-5.5 11.1-9.6 17.8-15.6z"/><path fill="#FFC758" d="M236.9 209.4s-3.9-4.5-4.7-11.5c-.8-7.3 3.6-10.3 3.9-10.4l31.5-10.9s-.9 2.3-.1 8.7c.7 5.3 5.9 12.6 5.9 12.6s-16.8.4-27.2 4.5c-6.4 2.4-9.3 7-9.3 7z"/><path fill="#D4A11E" d="M257.8 191.2c6.8-5.9 9.9-14.6 9.9-14.6s-.9 5 0 8.9c1.6 6.9 6.4 12.6 6.4 12.6s-14.6.2-25.3 3.8c-6.9 2.3-11.2 6.4-11.9 7.6-1.4-5.9 14.1-12.5 20.9-18.3z"/><path fill="#D4A11E" d="M285.1 235.2s-8.6-11.1-11.1-20.9c-1.6-6.5-.4-13.8.1-16.4-.9 3.4-4.4 14.6-12.8 22.3-8 7.4-23.9 11-20.5 18 .6-1.2 2.4-3.8 8.9-5.4l-.1 9h3v-9.6c14.1-2.1 32.5 3 32.5 3z"/><path fill-rule="evenodd" clip-rule="evenodd" fill="#FFC758" d="M299.7 256.1c2-.4 4-.8 6.9-1.6-.2-.1-.3-.2-.5-.4-3.2-3.6-2.6-7.3-.7-9.2 7.1-6.7 7-11.5 7-11.5s-17.3 3.6-39.9 4.7c-1.5.1-6.8 2.4-8.3 2.4-3.1.1-6.3.2-9.6.2-42.8.3-54.8-2.6-68.9-5.3-14.2-2.7-20.5-5.6-20.5-5.6l-.5 1.5s11.2 4.3 19.3 8.3c1.7.8 8.4 10.9 10.6 14.3h-50.9c-2.8-58.3 8.5-106.1 8.5-106.1s39-8.3 97.5-8.3v-6.2c-62.2 0-103.6 8.8-103.6 8.8s-18.1 63.7-8.5 139.6c4 31.6 30.2 90.8 111.8 118.2l3.6-5-3.6-5c-76.9-25.8-99.3-77.8-103.2-107.6-.9-6.6-1.5-13.1-2-19.6h105.5v-8.9h-54.2c1.2-3.9 5-4.9 9.7-3.7 4.9 1.2 9.7 2.4 14.4 2.2 11.6-.6 9.9-3.7 10.9-3.6 11.9.7 16.4 3.6 26.9 3.5 9.5-.2 12.8-2.6 13.7-2.7 11.6-.1 16 5.2 27.6 6.2.4.4.7.4 1 .4z"/><path fill-rule="evenodd" clip-rule="evenodd" fill="#D4A11E" d="M353 142.5s-41.2-8.8-103.4-8.8v6.2c58.6 0 97.4 8.3 97.4 8.3s11.3 47.8 8.5 106.1h-51.1c-4.1-3.9-1.7-9.1-.4-10.3 6-5.4 6-9 6-9s-13.8 3.4-36.5 4.4c-1.5.1-7.8 2.9-9.4 3-3.1.1-7.6.2-10.9.2-29.6 0-44-.6-69.7-6.1.5.6.7.9 1.2 1.5.1.2 11.2 3.1 11.4 3.3 1.7 2.3 3.9 3.9 6.6 5.3 4.1 2.2 10.2 4.1 15.3 4.4 11.6.7 9.4-3.6 10.5-3.6 11.9-.2 19.5 4.1 29.9 3.9 9.5-.2 9.8-3.1 10.7-3.2 9.4-.5 18.9 3.6 27.1 6.2h-46.7v8.9h105.3c-.5 6.4-1.1 13-2 19.6-3.9 29.8-26.4 81.8-103.3 107.6v10c81.7-27.4 107.9-86.6 111.9-118.2 9.6-76-8.4-139.7-8.4-139.7z"/><path fill="#00285D" d="M58.8 169.9l4.3-8.1 19.3-1.4-9.8-16.7 4.3-8.1 34.3 18.1-3.9 7.5-22.4-11.8 9.6 17.3-.1.2-19.6 2 22.3 11.7-3.9 7.4zM98.1 109l5.4-5.7 39.8 14.7-6.1 6.5-8.8-3.4-11.2 11.9 3.9 8.5-6 6.3-17-38.8zm22.8 9.1l-12.7-4.9 5.6 12.4 7.1-7.5zm7.9-37.4l6.8-4 27.9 10.9-12.4-20.4 7.2-4.3L178.4 96l-6.2 3.8-28.8-11.4 12.7 21.1-7.1 4.4zm52.1-6.7v-.1c-3.1-10.6 2.4-21.6 13.9-24.9 7-2 11.9-.9 16.3 1.5l-3.5 7.5c-3.6-1.8-7-2.5-10.7-1.5-6.3 1.8-9.3 8.3-7.5 14.7v.1c1.8 6.4 7.8 10.4 14.2 8.6 4.3-1.2 6.4-3.7 8.5-7.2l6.7 3.8c-2.6 5.2-6.2 9-13.4 11.1-10.8 3.2-21.4-2.9-24.5-13.6zm46.5-31.1l8.5-.2.4 15.3 15.7-.4-.3-15.3 8.5-.3 1 38.8-8.6.2-.4-15.5-15.7.4.4 15.5-8.5.2zm83 43.2l7.1-3.4c1.9 4.1 4.5 7.3 8.5 9.1 3.2 1.5 5.7 1.1 6.6-1v-.1c.9-2 .2-3.5-5-7.8-6.2-5.1-9.9-9.2-6.7-16.2v-.1c3-6.4 10-8.2 17.2-4.9 5.1 2.4 8.8 6 11 10.5l-6.7 4c-2.1-3.6-4.6-6.3-7.6-7.7-2.9-1.4-5.1-.7-5.9 1v.1c-1.1 2.3.1 3.8 5.5 8.1 6.3 5.2 9.1 9.6 6.3 15.7v.1c-3.2 7-10.4 8.5-18 4.9-5.3-2.2-9.8-6.6-12.3-12.3zm56.6 2.2l-9.4-7.1 4.7-6.3 25.6 19.5-4.8 6.3-9.4-7.2-18.7 24.6-6.8-5.2zm61.3 55.1l8 15.8c2.2 4.4 2.7 8.5 1.6 11.9-1 2.9-3.2 5.3-6.4 7h-.1c-5.6 2.8-10.6 1.6-14.5-2l-8.1 14.7-4.5-8.9 7.4-13-3-6-11.1 5.6-3.8-7.6 34.5-17.5zm-9.1 23.8c1.9 3.7 4.9 4.8 7.8 3.4h.1c3.3-1.6 3.8-4.8 1.9-8.5l-3.8-7.6-9.9 5 3.9 7.7zM284.5 68.9l14.3 3.1 4-6.9-16.7-3.6 1.7-7.7 20.3 4.4 1.6-7.5-28.6-6.2-8.2 38 28.8 6.2 1.7-7.4-20.6-4.5zm115.1 37l-29.8 24.9 19 22.7 5.8-4.9-13.5-16.1 6.3-5.3 9.5 11.4 7.7-2.6-11.4-13.6 6-5.1 13.4 15.9 5.8-4.9zM184.2 436.5v-.1c0-11.2 8.5-20.4 20.6-20.4 7.4 0 11.9 2.5 15.6 6.1l-5.5 6.4c-3-2.8-6.1-4.5-10.1-4.5-6.7 0-11.5 5.5-11.5 12.3v.1c0 6.8 4.7 12.4 11.5 12.4 4.5 0 7.3-1.8 10.4-4.6l5.5 5.6c-4.1 4.3-8.6 7.1-16.2 7.1-11.7-.1-20.3-9-20.3-20.4zm44.9-19.8h8.7v39.5h-8.7v-39.5zm28.9 8h-12v-8h32.7v8h-12v31.5H258v-31.5zm39.5 15.9l-15.2-23.9h10.1l9.4 15.8 9.6-15.8h9.9l-15.2 23.7v15.7h-8.7v-15.5z"/></svg>