<?xml version="1.0" standalone="no"?>
<!DOCTYPE svg PUBLIC "-//W3C//DTD SVG 20010904//EN"
 "http://www.w3.org/TR/2001/REC-SVG-20010904/DTD/svg10.dtd">
<svg version="1.0" xmlns="http://www.w3.org/2000/svg"
 width="346.000000pt" height="346.000000pt" viewBox="0 0 346.000000 346.000000"
 preserveAspectRatio="xMidYMid meet">
<metadata>
Created by potrace 1.14, written by Peter Selinger 2001-2017
</metadata>
<g transform="translate(0.000000,346.000000) scale(0.100000,-0.100000)"
fill="#000000" stroke="none">
<path d="M1619 3457 c-2 -3 -35 -7 -74 -11 -155 -13 -358 -66 -495 -128 -89
-41 -145 -68 -165 -80 -245 -156 -332 -228 -469 -389 -97 -114 -177 -238 -242
-373 -53 -110 -107 -260 -119 -325 -3 -19 -8 -38 -10 -41 -3 -4 -7 -25 -11
-46 -3 -22 -7 -50 -10 -64 -19 -104 -25 -312 -12 -451 13 -136 67 -350 123
-484 104 -248 291 -500 495 -665 24 -19 48 -40 54 -45 46 -44 340 -211 401
-227 11 -3 51 -17 88 -31 76 -28 215 -63 292 -72 28 -4 58 -9 67 -11 32 -9
262 -11 348 -4 690 64 1273 526 1489 1180 85 261 106 517 66 820 -10 72 -58
248 -92 335 -64 163 -169 347 -268 470 -47 58 -195 206 -250 250 -27 22 -52
42 -55 45 -18 20 -190 125 -260 160 -160 78 -373 149 -500 164 -25 3 -56 8
-70 11 -30 7 -314 17 -321 12z"/>
</g>
</svg>
