<?xml version="1.0" standalone="no"?>
<!DOCTYPE svg PUBLIC "-//W3C//DTD SVG 20010904//EN"
 "http://www.w3.org/TR/2001/REC-SVG-20010904/DTD/svg10.dtd">
<svg version="1.0" xmlns="http://www.w3.org/2000/svg"
 width="760.000000pt" height="760.000000pt" viewBox="0 0 760.000000 760.000000"
 preserveAspectRatio="xMidYMid meet">
<metadata>
Created by potrace 1.14, written by Peter Selinger 2001-2017
</metadata>
<g transform="translate(0.000000,760.000000) scale(0.100000,-0.100000)"
fill="#000000" stroke="none">
<path d="M3540 7589 c-976 -52 -1964 -267 -2525 -549 l-130 -65 -58 -228
c-337 -1336 -336 -2486 5 -3537 196 -604 515 -1169 944 -1670 122 -143 424
-446 564 -566 411 -353 848 -648 1347 -910 l113 -59 87 45 c143 74 449 251
588 340 836 538 1465 1177 1895 1925 83 143 235 459 294 606 263 668 391 1458
356 2192 -28 585 -105 1087 -258 1677 l-48 185 -89 47 c-550 291 -1568 514
-2597 568 -216 11 -260 11 -488 -1z m-1894 -556 c-13 -43 -71 -294 -107 -465
-197 -944 -255 -1800 -173 -2558 49 -452 171 -948 326 -1325 27 -66 52 -128
55 -137 3 -10 10 -18 15 -18 17 0 219 120 338 201 127 86 288 213 394 311 l68
63 -12 92 c-8 57 -11 145 -8 228 l5 134 -337 3 -338 3 -44 30 c-23 17 -58 53
-76 80 -29 43 -41 52 -87 66 -95 29 -144 79 -164 169 -13 56 1 122 35 171 26
38 107 89 142 89 14 0 27 15 46 53 29 60 81 118 129 144 29 16 85 18 627 23
l595 5 75 44 c391 232 895 233 1275 2 l67 -41 890 0 890 0 -5 403 c-9 677 -74
1192 -248 1970 -34 148 -59 271 -56 273 2 2 33 -6 68 -18 l64 -23 17 -65 c10
-36 40 -164 67 -285 117 -523 190 -1021 221 -1500 11 -176 14 -717 3 -779 l-6
-39 -919 8 c-505 4 -918 5 -918 2 0 -3 36 -40 81 -83 200 -194 315 -407 368
-679 l18 -90 29 3 c59 6 251 44 329 64 137 36 177 65 204 151 10 30 17 37 39
37 15 0 149 7 297 15 321 17 415 19 415 5 0 -27 -56 -294 -90 -430 -128 -508
-332 -972 -617 -1404 -188 -286 -362 -496 -637 -771 -311 -311 -597 -542 -991
-803 -104 -69 -193 -130 -197 -136 -6 -8 -10 -7 -16 1 -4 6 -95 69 -202 140
-667 442 -1181 929 -1564 1483 -89 129 -236 365 -236 380 0 3 51 19 113 34
263 65 533 168 727 278 156 88 147 76 105 139 -49 73 -103 187 -135 282 -15
43 -30 78 -34 79 -4 0 -54 -41 -109 -91 -125 -111 -266 -217 -400 -301 -105
-66 -356 -200 -374 -200 -22 0 -155 316 -238 565 -118 355 -196 743 -237 1180
-20 217 -17 900 5 1145 46 494 141 1063 254 1514 l38 149 60 23 c74 28 88 29
81 7z m541 -924 c102 -462 165 -717 198 -801 7 -17 -4 -18 -139 -18 -132 0
-146 2 -146 18 0 9 -7 56 -17 105 l-16 87 -131 0 c-72 0 -141 -3 -153 -6 -18
-5 -28 -23 -48 -86 -14 -43 -25 -88 -25 -99 0 -18 -8 -19 -111 -19 -85 0 -110
3 -106 13 3 6 27 68 55 137 71 180 208 571 232 664 11 44 20 96 20 118 0 21 1
38 3 39 14 4 324 46 331 45 5 -1 29 -90 53 -197z m3622 174 c53 -9 101 -20
107 -25 6 -4 15 -36 18 -71 31 -287 103 -846 112 -879 5 -16 -5 -18 -115 -18
l-121 0 0 28 c-1 118 -84 865 -107 960 -6 26 -12 26 106 5z m-1763 -250 c44
-24 104 -85 128 -132 22 -41 49 -162 39 -172 -4 -4 -100 -42 -213 -83 -228
-83 -222 -78 -172 -151 71 -103 185 -122 296 -48 l40 26 23 -29 c31 -39 29
-47 -16 -83 -123 -98 -315 -108 -458 -24 -87 51 -141 132 -164 251 -39 201 58
388 234 453 71 26 204 22 263 -8z m-641 8 c29 -6 30 -8 33 -69 2 -34 -1 -62
-5 -62 -4 0 -30 7 -57 15 -73 22 -137 19 -177 -8 -63 -42 -49 -91 38 -132 235
-110 263 -138 263 -264 0 -85 -41 -143 -134 -191 -64 -32 -76 -35 -178 -39
-103 -3 -167 5 -230 31 -27 10 -28 13 -28 84 0 40 4 75 9 78 5 3 32 -10 61
-29 134 -90 290 -77 290 25 0 43 -26 65 -164 140 -142 77 -169 108 -169 194 0
99 69 181 182 217 57 18 202 24 266 10z m-464 -86 c-1 -38 -5 -73 -8 -77 -2
-5 -21 -8 -42 -8 -24 0 -53 -10 -83 -29 -86 -55 -118 -170 -118 -428 l0 -123
-121 0 -122 0 7 47 c13 100 28 444 23 546 l-6 107 108 0 109 0 6 -31 c3 -17 6
-43 6 -56 0 -23 4 -21 46 26 54 60 126 102 169 98 l30 -2 -4 -70z m1526 67 c6
-4 14 -21 18 -37 13 -58 13 -58 52 -26 56 44 107 62 179 62 111 0 183 -54 203
-153 6 -29 15 -154 21 -278 6 -124 13 -242 17 -262 l6 -38 -120 0 -120 0 4
103 c2 56 0 177 -4 269 -8 145 -12 171 -29 195 -37 49 -108 47 -153 -4 l-24
-27 7 -216 c3 -118 9 -239 12 -267 l7 -53 -121 0 -120 0 -6 328 c-3 180 -8
346 -12 370 l-6 42 88 0 c49 0 94 -4 101 -8z m993 -50 c59 -23 117 -75 144
-129 18 -36 31 -119 46 -290 10 -110 25 -194 45 -245 7 -16 -2 -18 -98 -18
l-105 0 -12 29 -12 29 -41 -28 c-130 -87 -319 -55 -377 64 -44 92 -17 208 62
268 67 51 214 108 280 108 29 0 30 2 24 33 -8 39 -35 78 -67 95 -40 21 -146
11 -210 -21 -31 -15 -59 -27 -62 -27 -4 0 -7 31 -7 70 0 64 2 70 23 74 12 3
31 7 42 10 11 3 76 4 145 2 99 -2 136 -7 180 -24z"/>
<path d="M3555 4521 c-411 -86 -746 -380 -881 -773 -95 -278 -83 -585 35 -858
220 -511 799 -802 1344 -676 450 105 795 459 893 916 24 112 24 362 0 468
-101 454 -423 792 -863 909 -135 35 -391 42 -528 14z m145 -502 l0 -330 -37
-16 c-21 -8 -49 -23 -63 -33 l-25 -18 -278 182 c-152 99 -277 184 -277 187 0
11 146 150 195 185 125 90 332 169 453 173 l32 1 0 -331z m389 291 c109 -35
174 -67 268 -132 75 -52 223 -198 223 -220 0 -7 -124 -93 -276 -191 l-275
-178 -18 23 c-19 23 -62 49 -113 67 l-28 11 0 331 0 332 65 -7 c36 -4 105 -20
154 -36z m-892 -646 c245 -161 268 -178 266 -202 -1 -15 -2 -59 -3 -99 l-1
-72 -270 -172 c-149 -94 -277 -172 -286 -173 -18 -1 -49 70 -78 176 -23 85
-31 307 -15 404 17 107 90 314 111 314 5 0 129 -79 276 -176z m1509 81 c53
-122 69 -208 69 -380 0 -136 -3 -173 -23 -244 -29 -107 -68 -197 -83 -193 -6
1 -132 82 -280 179 l-269 176 0 81 1 81 272 177 c150 97 276 177 280 177 4 1
19 -24 33 -54z m-825 -228 c95 -64 114 -182 43 -267 -75 -89 -216 -82 -282 14
-60 87 -32 200 63 257 44 28 132 26 176 -4z m-302 -411 c13 -13 45 -34 72 -45
l49 -22 0 -329 c0 -181 -3 -331 -7 -333 -5 -3 -51 4 -102 15 -161 33 -307 103
-443 214 -70 58 -161 161 -155 177 4 14 529 346 548 347 8 0 26 -11 38 -24z
m731 -152 c148 -97 270 -181 270 -186 0 -18 -153 -168 -216 -214 -119 -85
-325 -165 -454 -176 l-35 -3 -3 331 -2 331 43 17 c23 9 58 29 77 46 19 16 38
29 42 30 4 0 129 -79 278 -176z"/>
<path d="M3530 4244 c-113 -34 -241 -102 -330 -178 -41 -33 -75 -65 -77 -71
-1 -5 99 -76 222 -158 l226 -147 39 20 40 20 0 270 c0 311 14 283 -120 244z"/>
<path d="M3920 4002 l0 -268 43 -22 c23 -12 51 -29 63 -37 20 -15 32 -8 240
127 120 78 221 143 223 144 10 8 -52 74 -123 131 -93 74 -227 143 -336 173
-122 33 -110 60 -110 -248z"/>
<path d="M2952 3743 c-16 -31 -49 -136 -63 -198 -22 -100 -17 -294 10 -402 13
-50 28 -99 35 -108 10 -13 41 3 236 126 124 79 226 143 226 143 1 1 4 39 5 85
l4 83 -205 135 c-254 167 -237 157 -248 136z"/>
<path d="M4410 3571 c-214 -139 -225 -148 -228 -180 l-3 -34 38 6 c21 3 138
18 261 34 l222 27 0 37 c0 37 -42 217 -57 243 -6 11 -58 -19 -233 -133z"/>
<path d="M4460 3339 c-124 -15 -235 -28 -247 -29 -13 0 -23 -3 -23 -7 1 -14
442 -295 450 -287 12 14 48 133 59 198 15 83 14 156 -1 155 -7 -1 -114 -14
-238 -30z"/>
<path d="M3704 3446 c-29 -29 -34 -41 -34 -79 0 -56 34 -101 89 -118 97 -29
183 79 136 171 -22 43 -53 60 -108 60 -42 0 -54 -5 -83 -34z"/>
<path d="M3305 2934 c-121 -79 -221 -148 -223 -154 -7 -20 152 -163 234 -212
79 -47 220 -100 302 -113 l42 -7 0 275 0 274 -62 39 c-34 21 -65 40 -68 41 -3
1 -104 -63 -225 -143z"/>
<path d="M3983 3036 l-63 -40 0 -273 c0 -261 1 -273 19 -273 37 0 196 52 265
86 99 50 208 134 266 205 l29 37 -57 38 c-31 21 -133 88 -227 149 l-170 111
-62 -40z"/>
<path d="M1872 4314 c-56 -28 -102 -81 -128 -150 -15 -39 -19 -42 -61 -47 -83
-9 -137 -73 -137 -162 0 -92 66 -165 148 -165 38 0 43 -3 65 -45 32 -60 100
-121 149 -135 26 -6 149 -9 342 -8 l302 3 28 95 c65 225 168 399 334 562 l79
78 -535 0 -534 0 -52 -26z"/>
<path d="M5847 3706 l-199 -11 -19 -39 c-26 -53 -43 -71 -94 -95 -53 -25 -231
-72 -381 -102 l-111 -21 -6 -127 c-23 -446 -252 -817 -641 -1039 -107 -62
-222 -104 -358 -133 -133 -29 -363 -31 -483 -5 -270 58 -498 185 -678 376 -41
44 -78 80 -81 80 -2 0 -44 -24 -93 -54 -193 -117 -376 -196 -616 -266 -78 -23
-150 -45 -160 -48 -15 -6 -7 -25 62 -139 399 -665 930 -1204 1689 -1712 l123
-82 146 97 c355 236 638 468 929 758 402 403 654 748 888 1217 205 410 337
818 430 1327 l6 32 -78 -2 c-42 -1 -166 -6 -275 -12z"/>
<path d="M1951 6039 c-1 -4 -33 -98 -71 -209 l-70 -202 112 7 c62 4 114 8 115
9 3 2 -75 375 -82 391 -2 6 -4 7 -4 4z"/>
<path d="M3851 5942 c-19 -9 -43 -28 -53 -42 -23 -32 -40 -133 -30 -186 l7
-41 90 34 c98 37 135 68 135 113 0 48 -30 109 -61 125 -36 19 -47 19 -88 -3z"/>
<path d="M5368 5660 c-48 -14 -105 -51 -121 -80 -24 -39 -22 -111 3 -143 28
-35 79 -51 126 -38 65 18 70 29 62 123 -3 46 -7 98 -7 116 -1 34 -11 38 -63
22z"/>
</g>
</svg>
