<?xml version="1.0" standalone="no"?>
<!DOCTYPE svg PUBLIC "-//W3C//DTD SVG 20010904//EN"
 "http://www.w3.org/TR/2001/REC-SVG-20010904/DTD/svg10.dtd">
<svg version="1.0" xmlns="http://www.w3.org/2000/svg"
 width="225.000000pt" height="225.000000pt" viewBox="0 0 225.000000 225.000000"
 preserveAspectRatio="xMidYMid meet">
<metadata>
Created by potrace 1.14, written by Peter Selinger 2001-2017
</metadata>
<g transform="translate(0.000000,225.000000) scale(0.100000,-0.100000)"
fill="#000000" stroke="none">
<path d="M970 2240 c-370 -52 -688 -283 -850 -615 -114 -234 -146 -481 -95
-724 70 -333 286 -616 586 -767 187 -93 331 -125 544 -119 291 7 531 107 739
306 184 176 301 398 336 638 19 129 8 343 -24 461 -49 179 -144 347 -270 479
-160 166 -345 272 -566 322 -99 22 -306 32 -400 19z m600 -293 c36 -11 72 -27
81 -34 8 -7 21 -13 27 -13 19 0 90 -53 103 -77 7 -13 21 -25 31 -29 10 -3 26
-17 36 -32 9 -15 29 -38 45 -53 15 -14 27 -35 27 -46 0 -11 8 -31 19 -44 10
-13 22 -39 25 -56 4 -19 14 -33 22 -33 13 0 20 -34 16 -80 -1 -8 2 -26 7 -40
4 -14 4 -59 0 -100 -11 -96 -13 -105 -26 -121 -6 -8 -18 -31 -26 -51 -9 -21
-21 -38 -26 -38 -6 0 -11 -5 -11 -11 0 -17 -27 -39 -49 -39 -11 0 -24 -8 -30
-17 -8 -15 -26 -17 -125 -18 -89 0 -119 3 -125 14 -7 11 -10 10 -14 -5 -4 -16
-5 -16 -6 4 -2 46 -21 20 -21 -31 0 -41 4 -55 20 -65 26 -16 30 -116 4 -126
-20 -8 -208 -8 -228 0 -14 5 -16 30 -16 172 0 152 -10 232 -30 232 -13 0 -50
37 -50 49 0 7 -4 9 -10 6 -6 -4 -10 -70 -10 -166 0 -148 1 -160 20 -171 16
-10 20 -24 20 -65 l0 -53 -125 0 -125 0 0 235 0 235 -26 17 c-24 15 -29 15
-52 2 -35 -19 -43 -69 -40 -227 3 -115 5 -125 26 -142 18 -15 22 -28 22 -69
l0 -51 -150 0 -150 0 0 48 c0 39 5 53 25 70 25 22 25 23 25 187 0 154 -1 166
-20 177 -17 11 -20 24 -20 80 l0 68 119 0 c74 0 121 -4 123 -10 2 -7 19 -5 48
6 25 9 75 16 113 16 59 0 67 2 67 19 0 10 -9 28 -19 38 -11 11 -17 22 -15 24
3 3 7 47 9 98 5 147 13 183 51 228 57 66 124 101 213 110 87 10 112 7 201 -22z
m-280 -747 c0 -5 -2 -10 -4 -10 -3 0 -8 5 -11 10 -3 6 -1 10 4 10 6 0 11 -4
11 -10z"/>
<path d="M1155 1440 c27 -12 43 -12 25 0 -8 5 -22 9 -30 9 -10 0 -8 -3 5 -9z"/>
</g>
</svg>
