<?xml version="1.0" encoding="utf-8"?>
<!-- Generator: Adobe Illustrator 26.0.2, SVG Export Plug-In . SVG Version: 6.00 Build 0)  -->
<svg version="1.1" id="Layer_1" xmlns="http://www.w3.org/2000/svg" xmlns:xlink="http://www.w3.org/1999/xlink" x="0px" y="0px"
	 viewBox="0 0 441 193" style="enable-background:new 0 0 441 193;" xml:space="preserve">
<style type="text/css">
	.st0{fill:#FFFFFF;}
	.st1{fill:#461100;}
</style>
<g>
	<path class="st0" d="M441,99.14c0-6.81-2.14-12.67-6.21-17.3l3.63,0l0-33.27l-11.83,0c0.45-1.43,0.68-2.97,0.68-4.6
		c-0.04-7.12-4.7-13-11.65-14.07c-1.23-0.19-2.8-0.31-3.82-0.33l-25.56,0.05l-6.04,13.82c-0.44-0.87-0.93-1.73-1.46-2.59
		c-6.83-11.05-20.75-16.62-37.48-16.62c-11.22,0-20.81,2.53-29.04,6.95c-6.17-4.33-14.55-7.03-26.14-7.03
		c-8.38,0-16.19,1.59-22.96,4.94l0-3l-55.1,0l0,24.19c-4.17-1.59-8.89-2.42-14-2.42c-6.83,0-13.3,1.73-18.57,4.91l0-0.01
		c-0.77-3.73-2.23-7.89-4.71-11.91c-6.83-11.05-20.75-16.62-37.48-16.62c-11.22,0-20.81,2.53-29.03,6.95
		c-6.18-4.33-14.56-7.03-26.15-7.03c-8.39,0-16.19,1.59-22.96,4.95l0-3.01L0,26.08l0,36.62c0,0,1.01-0.01,3.19,0
		c3.97,0.02,6.04,2.56,6.03,5.55c-0.05,14.21-0.17,55.83-0.04,58.95c0.17,4.06-1.78,6.33-5.91,6.41c-1.87,0.04-3.27,0-3.27,0
		l0,35.25l183.84,0l0-23.82c2.99,0.54,6.59,0.9,10.6,0.83c5.65-0.11,9.65-1.31,13.56-2.84l0,25.82l183.85,0.01l0-35.27
		c-6.11,0.36-7.7-2.23-7.7-6.52c0-0.3,0-1.14,0.01-2.41l15.65,0l0-1.52c3.17,1.41,8.48,2.21,13.62,1.97
		c7.84-0.37,14.02-2.69,19.02-7C437.96,113.36,441,106.62,441,99.14"/>
	<path class="st1" d="M414.21,44.54c1.11-0.08,2-0.64,1.99-2.17c-0.01-1.9-1.27-2.5-3.42-2.49l-3.1,0.02l0.03,8.32l1.78-0.01
		l-0.02-3.49l0.84-0.01l1.93,3.48l2.1,0L414.21,44.54z M413.05,43.28l-1.57,0.01l-0.02-2l1.24-0.01c0.68,0,1.6,0.06,1.6,0.91
		C414.31,43.11,413.84,43.27,413.05,43.28 M420.51,44c-0.02-4.88-3.69-7.71-7.78-7.68c-4.1,0.02-7.74,2.87-7.72,7.75
		c0.02,4.88,3.69,7.7,7.79,7.69C416.88,51.73,420.52,48.88,420.51,44 M412.79,49.98l0-0.02c-3.07,0.04-5.54-2.35-5.55-5.9
		c-0.01-3.55,2.44-5.93,5.5-5.94c2.98-0.02,5.52,2.34,5.54,5.89C418.29,47.57,415.77,49.97,412.79,49.98 M392.68,54.01l-8.98-0.03
		l7.4-17.23l11.61,0.02L392.68,54.01z M383.81,160.73l-41.42,0c0,0,0-87.4,0.01-92.02c0-6.95-5.62-9.9-12.56-9.9
		c-6.95,0-12.55,2.8-12.55,9.9l0,63.7c0,5.65,2.65,9.18,7.76,9.18l-0.01,19.14l-41.22,0l0.01-92.02c0-6.92-5.62-9.9-12.57-9.9
		c-7.19,0-12.55,3.11-12.55,9.9l0,63.7c0,5.65,2.65,9.18,7.76,9.18v19.14l-50.42,0l0-19.09l31.88,0l-0.01-52.46l-27.66,0.01
		c0,0,5.29-4.92,5.29-13.93c0-8.25-3.37-15.47-9.49-20.42v-0.02l0-20.75l40.6,0l0,6.31c9.44-5.69,18.94-8.18,30.18-8.17
		c10.87,0,19.74,3.15,24.3,8.79c9.02-5.63,19.14-8.79,30.04-8.79c23.77,0,34.9,11.84,34.9,27.5l-0.02,71.99
		c-0.08,5.59,1.86,9.84,7.75,9.91L383.81,160.73z M175.81,142.76v17.97l-41.41,0c0,0,0-87.4,0-92.02c0-6.94-5.62-9.9-12.56-9.9
		c-6.95,0-12.55,2.8-12.55,9.9l0.01,63.7c0,5.65,2.65,9.18,7.76,9.18l0,19.14l-41.22,0l0-92.02c0-6.92-5.62-9.9-12.56-9.9
		c-7.19,0-12.55,3.11-12.55,9.9l0,63.7c0,5.65,2.65,9.18,7.76,9.18l0,19.14l-50.42,0V141.6c6.06,0,9.18-3.54,9.18-9.18l0.06-69.05
		c0-5.01-3.19-8.7-9.24-8.7l0-20.6l40.6,0v6.32c9.44-5.7,18.94-8.18,30.18-8.18c10.87,0,19.74,3.15,24.3,8.79
		c9.03-5.64,19.15-8.79,30.04-8.79c21.37,0,32.52,9.57,34.55,22.88h0l0,0.01c0.02,0.13,0.16,1.57,0.39,3.97l0,0
		c-3.97,4.9-6.11,11.09-6.11,17.95c0,10.22,4.85,14.97,4.92,15.05c-0.12,0.07-0.63,0.37-0.78,0.48c-0.2,0.14-10.31,7.55-10.3,21.38
		c0,8.89,3.65,17.02,10.26,22.89C168.91,139.3,172.19,141.3,175.81,142.76 M217.63,75.25c0,12.26-13.56,18.54-13.56,18.54
		l14.2,13.81c3.7-3.7,4.48-10.51,4.48-10.51l17.25,0l0,12.15l-6.06,0c0,0-1.62,4.37-5.48,8.23c0.17,0.17,4.49,4.07,4.49,4.07l7.05,0
		l0,12.18l-19.42,0l-4.38-4.19c0,0-8.46,8.17-25.25,8.17c-16.03,0-27.21-10.26-27.21-23.79c0-14,14.16-20.5,14.16-20.5
		c-3.25-3.25-7.99-7.63-7.99-16.4c0-14.53,12.07-21.25,24.1-21.25C207.3,55.76,217.63,62.6,217.63,75.25 M181.4,113.08
		c0,5.88,5.19,10.56,12.46,10.56c7.27,0,11.67-3.9,11.67-3.9l-17.9-16.95C187.63,102.79,181.39,106.07,181.4,113.08 M202.26,74.96
		c0-5.14-4.67-7.25-8.04-7.25c-4.46,0-7.8,2.42-7.8,7.39c0,4.14,7.8,9.66,7.8,9.66S202.26,81.19,202.26,74.96 M433.2,99.07
		c0.02,10.36-8.06,19.15-22.58,19.17c-6.06,0.01-11.18-1.99-15.1-4.45l0,3.07l-9.74,0.01l-0.02-20.64l9.16-0.01
		c1.1,6.48,7.25,10.15,14.63,10.33c5.22,0.13,7.9-3.8,7.9-6.16c0-3-1.8-4.98-4.56-6.05c-3.47-1.35-8.6-2.38-13.18-4.11
		c-8.92-3.38-13.39-8.11-13.4-16.77c-0.02-10.53,8.8-17.85,20.79-17.81c4.92,0.02,9.92,1.34,13.18,3.56l-0.02-2.91l10.3-0.02
		l0.03,17.71l-9.69,0.01c-1.37-4.29-6.66-7.83-12.82-7.82c-3.9,0.01-5.95,2.09-5.95,5.2c0.01,4.32,4.5,5.56,15.63,8.64
		C429.03,83.16,433.18,91.21,433.2,99.07"/>
</g>
</svg>
