<svg width="70" height="70" viewBox="0 0 70 70" xmlns="http://www.w3.org/2000/svg">
    <g fill="none" fill-rule="evenodd">
        <path d="M3.211 66.774h63.578V3.226H3.211v63.548zM0 70h70V0H0v70z" fill="#00264B"/>
        <path d="M53.796 10.208H16.204c-4.117 0-7.454 3.257-7.454 7.274 0 4.018 3.337 7.275 7.454 7.275h37.592c4.116 0 7.454-3.257 7.454-7.275 0-4.017-3.338-7.274-7.454-7.274" fill="#D02139"/>
        <path d="M49.907 28.868H16.204c-4.117 0-7.454 3.257-7.454 7.274v19.292c0 4.017 3.337 7.274 7.454 7.274 4.116 0 7.453-3.257 7.453-7.274V44.997c0-.873.726-1.58 1.62-1.58h24.63c4.116 0 7.454-3.258 7.454-7.275s-3.338-7.274-7.454-7.274" fill="#00264B"/>
    </g>
</svg>
